<svg width="48" height="48" viewBox="0 0 48 48" fill="none" xmlns="http://www.w3.org/2000/svg">
<path d="M28.6829 6.05938H5.26829C3.00878 6.05938 1.17073 8.05727 1.17073 10.5133V19.4159C1.17073 19.4223 1.19532 20.0572 1.73971 20.0572C2.68214 20.0572 4.96039 16.2396 8.6517 16.2396C12.4577 16.2396 15.2196 19.4502 15.2196 23.8749C15.2196 28.2994 12.4577 31.5101 8.6517 31.5101C4.96039 31.5101 2.68214 27.6925 1.73971 27.6925C1.19532 27.6925 1.17073 28.3275 1.17073 28.3339V37.2365C1.17073 39.6925 3.00878 41.6904 5.26829 41.6904H28.6829C30.9424 41.6904 32.7804 39.6925 32.7804 37.2365V28.3339C32.7804 27.2789 33.5532 26.4199 34.5026 26.4199C36.4753 26.4199 37.7362 30.2375 41.3316 30.2375C44.4656 30.2375 46.8293 27.5028 46.8293 23.8749C46.8293 20.2469 44.4656 17.5122 41.3316 17.5122C37.7362 17.5122 36.4753 21.3298 34.5026 21.3298C33.5532 21.3298 32.7804 20.4708 32.7804 19.4159V10.5133C32.7804 8.05727 30.9424 6.05938 28.6829 6.05938ZM28.6829 4.78685C31.5876 4.78685 33.9513 7.3561 33.9513 10.5133V19.4159C33.9513 19.7633 34.2041 20.0572 34.5026 20.0572C35.609 20.0572 37.3943 16.2396 41.3316 16.2396C45.1329 16.2396 48 19.5228 48 23.8749C48 28.2269 45.1329 31.5101 41.3316 31.5101C37.3943 31.5101 35.609 27.6925 34.5026 27.6925C34.2041 27.6925 33.9513 27.9864 33.9513 28.3339V37.2365C33.9513 40.3937 31.5876 42.9629 28.6829 42.9629H5.26829C2.36371 42.9629 0 40.3937 0 37.2365V28.3339C0 27.3934 0.650927 26.4199 1.73971 26.4199C3.48293 26.4199 5.30341 30.2375 8.6517 30.2375C11.8291 30.2375 14.0487 27.6212 14.0487 23.8749C14.0487 20.1285 11.8291 17.5122 8.6517 17.5122C5.30341 17.5122 3.4841 21.3298 1.73971 21.3298C0.650927 21.3298 0 20.3563 0 19.4159V10.5133C0 7.3561 2.36371 4.78685 5.26829 4.78685H28.6829Z" fill="white"/>
</svg>
