<svg width="48" height="48" viewBox="0 0 48 48" fill="none" xmlns="http://www.w3.org/2000/svg">
<path d="M15.4491 5C13.2171 5 11.1772 6.09935 10.1275 7.86819C9.7422 8.51663 9.25502 9.51017 8.63734 10.9064C8.25334 11.7706 1.23561 28.4772 0.9375 29.1881L0.944902 29.1905C0.342851 30.4142 0 31.7673 0 33.1935C0 38.6005 4.81642 43 10.7368 43C16.6573 43 21.4737 38.6005 21.4737 33.1935V28.8314C21.8465 28.6602 22.7308 28.2903 24 28.2903C25.2692 28.2903 26.1535 28.6602 26.5263 28.8314V33.1935C26.5263 38.6005 31.3427 43 37.2631 43C43.1836 43 48 38.6005 48 33.1935C48 31.7673 47.6572 30.4142 47.0551 29.1905L47.0601 29.1881C46.7606 28.4772 39.7467 11.7729 39.3627 10.9087C38.745 9.51257 38.2565 8.51903 37.8725 7.87058C36.8241 6.10052 34.7842 5 32.551 5C29.2544 5 26.5748 7.39168 26.5338 10.3437C25.9063 10.1273 25.0269 9.90322 24 9.90322C22.9731 9.90322 22.0936 10.1273 21.4662 10.3437C21.4252 7.39168 18.7456 5 15.4491 5ZM15.4491 6.2258C18.0751 6.2258 20.2106 8.10259 20.2106 10.4108V28.5872C18.4017 25.496 14.8351 23.3871 10.7368 23.3871C8.06528 23.3871 5.62345 24.2893 3.7426 25.7692C5.69933 21.1123 9.49947 12.0642 9.79688 11.3924C10.3893 10.0587 10.8679 9.08051 11.2228 8.48109C12.0477 7.09103 13.6667 6.2258 15.4491 6.2258ZM32.551 6.2258C34.3333 6.2258 35.9511 7.09097 36.7747 8.48349C37.1296 9.08168 37.6107 10.0611 38.2031 11.3947C38.5005 12.0665 42.2979 21.1115 44.2549 25.7692C42.3743 24.29 39.9341 23.3871 37.2631 23.3871C33.1649 23.3871 29.5983 25.496 27.7894 28.5872V10.4108C27.7894 8.10259 29.9249 6.2258 32.551 6.2258ZM24 11.129C25.2692 11.129 26.1535 11.499 26.5263 11.6701V18.922C25.8993 18.7064 25.0222 18.4839 24 18.4839C22.9778 18.4839 22.1007 18.7064 21.4737 18.922V11.6701C21.8465 11.499 22.7308 11.129 24 11.129ZM24 19.7097C25.2692 19.7097 26.1535 20.0796 26.5263 20.2507V27.5026C25.8993 27.2871 25.0222 27.0645 24 27.0645C22.9778 27.0645 22.1007 27.2871 21.4737 27.5026V20.2507C21.8465 20.0796 22.7308 19.7097 24 19.7097ZM10.7368 24.6129C15.9613 24.6129 20.2106 28.4619 20.2106 33.1935C20.2106 37.9252 15.9613 41.7741 10.7368 41.7741C5.51242 41.7741 1.26316 37.9252 1.26316 33.1935C1.26316 28.4619 5.51242 24.6129 10.7368 24.6129ZM37.2631 24.6129C42.4876 24.6129 46.7369 28.4619 46.7369 33.1935C46.7369 37.9252 42.4876 41.7741 37.2631 41.7741C32.0387 41.7741 27.7894 37.9252 27.7894 33.1935C27.7894 28.4619 32.0387 24.6129 37.2631 24.6129Z" fill="white"/>
</svg>
