<svg width="611" height="611" viewBox="0 0 611 611" fill="none" xmlns="http://www.w3.org/2000/svg">
<rect width="611" height="611" fill="white"/>
<g clip-path="url(#clip0_808_3447)">
<path fill-rule="evenodd" clip-rule="evenodd" d="M304.775 436.423C381.039 371.047 488.165 307.502 547 284.62C537.924 278.804 523.756 270.452 507.776 261.376C431.875 286.432 343.265 341.997 264.093 404.827C277.536 414.99 291.694 425.525 304.775 436.423Z" fill="#E31837"/>
<path fill-rule="evenodd" clip-rule="evenodd" d="M269.909 258.84C258.649 253.386 246.302 248.305 236.864 243.948C208.176 258.106 170.763 279.539 123.56 313.309C133.733 318.762 144.621 325.293 156.243 331.834C192.558 304.957 229.236 279.539 269.909 258.84Z" fill="#012169"/>
<path fill-rule="evenodd" clip-rule="evenodd" d="M337.821 227.606C324.015 219.979 276.087 202.178 243.032 194.561C233.231 198.193 219.425 203.637 209.987 207.632C221.971 210.902 266.639 222.887 304.775 242.136C314.576 237.407 328.382 231.601 337.821 227.606Z" fill="#E31837"/>
<path fill-rule="evenodd" clip-rule="evenodd" d="M175.482 222.887C132.999 242.499 88.3311 269.366 64 284.983C72.7141 288.977 81.4283 292.248 93.4127 298.054C147.157 261.738 189.288 239.581 205.992 232.325C194.008 227.958 182.748 225.06 175.482 222.887Z" fill="#012169"/>
<path fill-rule="evenodd" clip-rule="evenodd" d="M369.779 216.346C379.58 213.076 390.85 210.168 400.651 207.26C372.325 195.275 336.734 182.566 304.775 174.577C299.694 176.026 284.439 180.031 273.904 183.291C284.801 186.571 320.745 194.923 369.779 216.346ZM190.737 352.894C202.359 359.797 214.706 369.236 226.69 377.225C306.224 315.492 384.662 267.917 470.736 241.04C458.752 234.871 448.216 229.427 434.783 222.887C383.213 235.958 294.965 271.177 190.737 352.894Z" fill="#E31837"/>
</g>
<defs>
<clipPath id="clip0_808_3447">
<rect width="483" height="483" fill="white" transform="translate(64 64)"/>
</clipPath>
</defs>
</svg>
