<?xml version="1.0" encoding="utf-8"?>
<!-- Generator: Adobe Illustrator 23.0.6, SVG Export Plug-In . SVG Version: 6.00 Build 0)  -->
<svg version="1.1" id="Layer_1" xmlns="http://www.w3.org/2000/svg" xmlns:xlink="http://www.w3.org/1999/xlink" x="0px" y="0px"
	 viewBox="0 0 133.8 120.6" style="enable-background:new 0 0 133.8 120.6;" xml:space="preserve">
<style type="text/css">
	.st0{fill:#FFFFFF;}
</style>
<g>
	<path class="st0" d="M10.7,14.7c2.2,0,4-1.8,4-4s-1.8-4-4-4s-4,1.8-4,4S8.5,14.7,10.7,14.7z M10.7,8.7c1.1,0,2,0.9,2,2s-0.9,2-2,2
		s-2-0.9-2-2S9.6,8.7,10.7,8.7z"/>
	<path class="st0" d="M20,14.7c2.2,0,4-1.8,4-4s-1.8-4-4-4s-4,1.8-4,4S17.8,14.7,20,14.7z M20,8.7c1.1,0,2,0.9,2,2s-0.9,2-2,2
		s-2-0.9-2-2S18.9,8.7,20,8.7z"/>
	<path class="st0" d="M29.2,14.7c2.2,0,4-1.8,4-4s-1.8-4-4-4c-2.2,0-4,1.8-4,4S27,14.7,29.2,14.7z M29.2,8.7c1.1,0,2,0.9,2,2
		s-0.9,2-2,2s-2-0.9-2-2S28.1,8.7,29.2,8.7z"/>
	<path class="st0" d="M44.5,81.2L21.3,66.1L44.5,51c0.5-0.3,0.8-0.9,0.8-1.5v-1.6c0-0.7-0.4-1.3-1-1.6C43.7,46,43,46,42.4,46.4
		L15.6,64c-0.5,0.3-0.8,0.9-0.8,1.5v1.2c0,0.6,0.3,1.2,0.8,1.5l26.9,17.6c0.3,0.2,0.6,0.3,1,0.3c0.3,0,0.6-0.1,0.9-0.2
		c0.6-0.3,1-0.9,1-1.6v-1.6C45.3,82.2,45,81.6,44.5,81.2z"/>
	<path class="st0" d="M65.6,31.2h-1.2c-0.9,0-1.6,0.6-1.8,1.4L47.7,93.4c-0.1,0.5,0,1.1,0.4,1.6c0.4,0.4,0.9,0.7,1.4,0.7h1.2
		c0.8,0,1.6-0.6,1.8-1.4l14.9-60.8c0.1-0.5,0-1.1-0.4-1.6C66.6,31.4,66.1,31.2,65.6,31.2z"/>
	<path class="st0" d="M126.8,50.6h-10V1c0-0.6-0.4-1-1-1H1C0.4,0,0,0.4,0,1v106.3c0,0.6,0.4,1,1,1h95.8v5.3c0,3.9,3.1,7,7,7h23
		c3.9,0,7-3.1,7-7v-56C133.8,53.7,130.6,50.6,126.8,50.6z M131.8,113.6c0,2.8-2.2,5-5,5h-23c-2.8,0-5-2.2-5-5v-56c0-2.8,2.2-5,5-5
		h23c2.8,0,5,2.2,5,5V113.6z M2,22.4h112.8v28.2h-11c-3.9,0-7,3.1-7,7v3.5L74.3,46.4C73.7,46,73,46,72.4,46.3c-0.6,0.3-1,0.9-1,1.6
		v1.6c0,0.6,0.3,1.2,0.8,1.5l23.1,15.1L72.3,81.3c-0.5,0.3-0.8,0.9-0.8,1.5v1.6c0,0.7,0.4,1.3,0.9,1.6c0.3,0.2,0.6,0.2,0.9,0.2
		c0.4,0,0.7-0.1,1-0.3l22.4-14.7v35.1H2V22.4z M114.8,2v18.4H2V2H114.8z"/>
	<path class="st0" d="M106.1,57h18.2c0.6,0,1-0.4,1-1s-0.4-1-1-1h-18.2c-0.6,0-1,0.4-1,1S105.6,57,106.1,57z"/>
	<path class="st0" d="M103.3,89.4l7.2,4.8c0.2,0.2,0.5,0.2,0.7,0.2c0.1,0,0.3,0,0.4-0.1c0.1,0,0.1,0,0.2-0.1c0.1,0,0.1-0.1,0.2-0.1
		l-0.3,1.3c-0.1,0.3,0,0.7,0.2,1c0.2,0.3,0.6,0.5,1,0.5h0.3c0.6,0,1.1-0.4,1.2-0.9l4-16.5c0.1-0.3,0-0.7-0.2-1
		c-0.2-0.3-0.6-0.5-1-0.5h-0.3c-0.5,0-1,0.4-1.2,0.9l-3.3,13.5c-0.1-0.3-0.3-0.5-0.5-0.7l-5.3-3.5l5.3-3.5c0.3-0.2,0.5-0.6,0.5-1
		v-0.4c0-0.4-0.2-0.8-0.6-1.1c-0.4-0.2-0.9-0.2-1.3,0l-7.3,4.8c-0.3,0.2-0.5,0.6-0.5,1v0.3C102.8,88.8,103,89.1,103.3,89.4z"/>
	<path class="st0" d="M127.3,87l-7.2-4.8c-0.4-0.3-0.9-0.3-1.3-0.1c-0.4,0.2-0.6,0.6-0.6,1.1v0.4c0,0.4,0.2,0.8,0.6,1l5.3,3.5
		l-5.3,3.5c-0.3,0.2-0.5,0.6-0.5,1v0.4c0,0.4,0.2,0.8,0.7,1.1c0.1,0,0.3,0.1,0.5,0.1c0.3,0,0.5-0.1,0.7-0.2l7.2-4.7
		c0.3-0.2,0.5-0.6,0.5-1V88C127.9,87.6,127.7,87.2,127.3,87z"/>
</g>
</svg>
