<?xml version="1.0" encoding="utf-8"?>
<!-- Generator: Adobe Illustrator 23.0.3, SVG Export Plug-In . SVG Version: 6.00 Build 0)  -->
<svg version="1.1" id="Layer_1" xmlns="http://www.w3.org/2000/svg" xmlns:xlink="http://www.w3.org/1999/xlink" x="0px" y="0px"
	 viewBox="0 0 133.75 120.59" style="enable-background:new 0 0 133.75 120.59;" xml:space="preserve">
<style type="text/css">
	.st0{fill:#FFFFFF;stroke:#000000;stroke-width:2;stroke-linecap:round;stroke-linejoin:round;stroke-miterlimit:10;}
	.st1{fill:none;stroke:#000000;stroke-width:2;stroke-linecap:round;stroke-linejoin:round;stroke-miterlimit:10;}
	.st2{stroke:#000000;stroke-width:2;stroke-linecap:round;stroke-linejoin:round;stroke-miterlimit:10;}
</style>
<g>
	<g>
		<rect x="1" y="1" class="st0" width="114.75" height="106.31"/>
		<circle class="st1" cx="10.73" cy="10.73" r="2.98"/>
		<circle class="st1" cx="19.98" cy="10.73" r="2.98"/>
		<circle class="st1" cx="29.24" cy="10.73" r="2.98"/>
		<line class="st1" x1="1" y1="21.37" x2="115.75" y2="21.37"/>
	</g>
	<g>
		<g>
			<path class="st2" d="M43.46,85.21c-0.16,0-0.32-0.05-0.46-0.14L16.15,67.45c-0.24-0.16-0.38-0.42-0.38-0.71v-1.23
				c0-0.28,0.14-0.55,0.38-0.71L42.99,47.2c0.26-0.17,0.59-0.18,0.86-0.04c0.27,0.15,0.44,0.43,0.44,0.74v1.57
				c0,0.29-0.14,0.55-0.38,0.71L19.49,66.13l24.43,15.95c0.24,0.16,0.38,0.42,0.38,0.71v1.57c0,0.31-0.17,0.59-0.44,0.74
				C43.73,85.18,43.59,85.21,43.46,85.21z"/>
		</g>
		<g>
			<path class="st2" d="M50.7,94.7h-1.25c-0.26,0-0.5-0.12-0.66-0.32c-0.16-0.2-0.22-0.47-0.16-0.72l14.86-60.84
				c0.09-0.38,0.43-0.64,0.82-0.64h1.25c0.26,0,0.5,0.12,0.66,0.32c0.16,0.2,0.22,0.47,0.16,0.72L51.52,94.06
				C51.42,94.44,51.08,94.7,50.7,94.7z"/>
		</g>
		<g>
			<path class="st2" d="M73.29,85.21c-0.14,0-0.28-0.03-0.4-0.1c-0.27-0.15-0.44-0.43-0.44-0.74V82.8c0-0.29,0.14-0.55,0.38-0.71
				l24.43-15.95L72.83,50.18c-0.24-0.16-0.38-0.42-0.38-0.71V47.9c0-0.31,0.17-0.59,0.44-0.74c0.27-0.15,0.6-0.13,0.86,0.04
				l26.85,17.62c0.24,0.16,0.38,0.42,0.38,0.71v1.23c0,0.28-0.14,0.55-0.38,0.71L73.76,85.07C73.62,85.16,73.46,85.21,73.29,85.21z"
				/>
		</g>
	</g>
	<g>
		<path class="st0" d="M126.75,119.59h-23c-3.31,0-6-2.69-6-6V57.57c0-3.31,2.69-6,6-6h23c3.31,0,6,2.69,6,6v56.03
			C132.75,116.91,130.06,119.59,126.75,119.59z"/>
		<line class="st0" x1="106.13" y1="56" x2="124.37" y2="56"/>
		<g>
			<g>
				<g>
					<path class="st0" d="M111.27,93.36c-0.04,0-0.09-0.01-0.13-0.04l-7.28-4.78c-0.06-0.04-0.1-0.11-0.1-0.19v-0.33
						c0-0.08,0.04-0.15,0.1-0.19l7.28-4.78c0.07-0.05,0.16-0.05,0.23-0.01c0.07,0.04,0.12,0.12,0.12,0.2v0.43
						c0,0.08-0.04,0.15-0.1,0.19l-6.62,4.33l6.62,4.33c0.06,0.04,0.1,0.11,0.1,0.19v0.43c0,0.08-0.05,0.16-0.12,0.2
						C111.34,93.35,111.3,93.36,111.27,93.36z"/>
				</g>
				<g>
					<path class="st0" d="M113.23,95.93h-0.34c-0.07,0-0.14-0.03-0.18-0.09c-0.04-0.06-0.06-0.13-0.04-0.2l4.03-16.5
						c0.03-0.1,0.12-0.17,0.22-0.17h0.34c0.07,0,0.14,0.03,0.18,0.09c0.04,0.06,0.06,0.13,0.04,0.2l-4.03,16.5
						C113.43,95.86,113.33,95.93,113.23,95.93z"/>
				</g>
				<g>
					<path class="st0" d="M119.36,93.36c-0.04,0-0.07-0.01-0.11-0.03c-0.07-0.04-0.12-0.12-0.12-0.2V92.7c0-0.08,0.04-0.15,0.1-0.19
						l6.62-4.33l-6.62-4.33c-0.06-0.04-0.1-0.11-0.1-0.19v-0.43c0-0.08,0.05-0.16,0.12-0.2c0.07-0.04,0.16-0.04,0.23,0.01l7.28,4.78
						c0.06,0.04,0.1,0.11,0.1,0.19v0.33c0,0.08-0.04,0.15-0.1,0.19l-7.28,4.78C119.44,93.35,119.4,93.36,119.36,93.36z"/>
				</g>
			</g>
		</g>
	</g>
</g>
</svg>
