<?xml version="1.0" encoding="utf-8"?>
<!-- Generator: Adobe Illustrator 23.0.3, SVG Export Plug-In . SVG Version: 6.00 Build 0)  -->
<svg version="1.1" id="Layer_1" xmlns="http://www.w3.org/2000/svg" xmlns:xlink="http://www.w3.org/1999/xlink" x="0px" y="0px"
	 viewBox="0 0 124 124" style="enable-background:new 0 0 124 124;" xml:space="preserve">
<g>
	<g>
		<g>
			<path d="M50.18,42.97l25.78,25.24V42.97h16.83v44.4H75.84L48.03,60.46v26.92H31.2v-44.4H50.18z M69.88,40.05
				c-2.69,0-4.18-0.42-8.06-1.73c-1.85-0.66-2.69-0.9-3.58-0.9s-1.07,0.6-1.07,1.25v1.73h-9.61v-5.07c0-2.45,1.07-5.85,6.74-5.85
				h0.24c2.75,0,4.36,0.6,8.18,1.73c1.61,0.54,2.63,0.9,3.52,0.9c0.66,0,1.01-0.54,1.01-1.19v-1.73h9.61v4.72
				c0,2.57-0.78,6.15-6.68,6.15H69.88z"/>
		</g>
	</g>
	<g>
		<path d="M62,124C27.81,124,0,96.19,0,62S27.81,0,62,0s62,27.81,62,62S96.19,124,62,124z M62,11.95C34.4,11.95,11.95,34.4,11.95,62
			S34.4,112.05,62,112.05S112.05,89.6,112.05,62S89.6,11.95,62,11.95z"/>
	</g>
</g>
</svg>
