<?xml version="1.0" encoding="utf-8"?>
<!-- Generator: Adobe Illustrator 23.0.3, SVG Export Plug-In . SVG Version: 6.00 Build 0)  -->
<svg version="1.1" xmlns="http://www.w3.org/2000/svg" xmlns:xlink="http://www.w3.org/1999/xlink" x="0px" y="0px"
	 viewBox="0 0 50.9 35.8" style="enable-background:new 0 0 50.9 35.8;" xml:space="preserve">
<style type="text/css">
	.st0{fill:none;stroke:#193651;stroke-width:0.5;stroke-linecap:round;stroke-linejoin:round;stroke-miterlimit:10;}
</style>
<g id="Layer_2">
</g>
<g id="Layer_1">
	<g>
		<path class="st0" d="M0.4,6.1c-0.8,1.8,1.8,4.8,6.4,8.1c0.7-3.4,2.4-6.4,4.8-8.8C5.5,4.1,1.2,4.2,0.4,6.1z"/>
		<path class="st0" d="M41.7,18.2c-0.1,3.8-1.3,7.3-3.4,10.1c6.6,1.6,11.3,1.5,12.2-0.4C51.4,25.8,47.8,22.2,41.7,18.2z"/>
		<path class="st0" d="M41.7,18.2c0-0.1,0-0.2,0-0.3c0-9.8-7.9-17.6-17.6-17.6c-4.9,0-9.3,2-12.5,5.2 M21.3,6.2
			c-0.8,0-1.4-0.6-1.4-1.4s0.6-1.4,1.4-1.4s1.4,0.6,1.4,1.4S22.1,6.2,21.3,6.2z"/>
		<path class="st0" d="M6.8,14.2c-0.2,1.2-0.4,2.4-0.4,3.7c0,9.8,7.9,17.6,17.6,17.6c5.9,0,11-2.8,14.2-7.2
			c-4.5-1.1-9.9-2.9-15.5-5.3C16.4,20.2,10.8,17.1,6.8,14.2z M25.4,28.4c0,1.5-1.2,2.8-2.8,2.8s-2.8-1.2-2.8-2.8s1.2-2.8,2.8-2.8
			S25.4,26.9,25.4,28.4z"/>
		<circle class="st0" cx="21.3" cy="4.9" r="1.4"/>
		<circle class="st0" cx="32.3" cy="16.3" r="5"/>
	</g>
</g>
</svg>
