<?xml version="1.0" encoding="utf-8"?>
<!-- Generator: Adobe Illustrator 23.0.3, SVG Export Plug-In . SVG Version: 6.00 Build 0)  -->
<svg version="1.1" id="Layer_1" xmlns="http://www.w3.org/2000/svg" xmlns:xlink="http://www.w3.org/1999/xlink" x="0px" y="0px"
	 viewBox="0 0 124 124" style="enable-background:new 0 0 124 124;" xml:space="preserve">
<g>
	<path d="M1,29.9h82.4c27.5,0,35.2,10.4,35.2,21.5v1.8c0,12.3-10.6,17-15.3,18.3c6.6,1.6,20.7,7.1,20.7,23.7v1.8
		c0,14.8-8.7,27.1-39.8,27.1H1V29.9z M31.2,49.7V65h47.1c8.4,0,10.5-3.8,10.5-7.6v-0.3c0-3.9-2.1-7.5-10.5-7.5H31.2z M31.2,85v18.5
		h49.7c10,0,11.9-5.4,11.9-9.2v-0.5c0-4-1.9-8.7-11.9-8.7H31.2z"/>
	<path d="M78.5,22.5c-4.9,0-8.3-1-16.6-3.7C58.7,17.7,56,17,54,17c-1.7,0-2.3,1.3-2.3,2.7v3.9H32.8V13.3C32.8,8,35,0.9,45.8,0.9h0.8
		c5.3,0,8.9,1.1,16.6,3.7c3.5,1.1,5.8,1.9,7.9,1.9c1.6,0,2.3-1.1,2.3-2.7V0h18.9v10.1c0,5.3-2.1,12.4-12.9,12.4H78.5z"/>
</g>
</svg>
