<?xml version="1.0" encoding="utf-8"?>
<!-- Generator: Adobe Illustrator 23.0.3, SVG Export Plug-In . SVG Version: 6.00 Build 0)  -->
<svg version="1.1" id="Layer_1" xmlns="http://www.w3.org/2000/svg" xmlns:xlink="http://www.w3.org/1999/xlink" x="0px" y="0px"
	 viewBox="0 0 108 120" style="enable-background:new 0 0 108 120;" xml:space="preserve">
<style type="text/css">
	.st0{fill:none;stroke:#000000;stroke-width:2;stroke-linecap:round;stroke-linejoin:round;stroke-miterlimit:10;}
</style>
<g>
	<g>
		<path class="st0" d="M81.86,54.86C81.86,39.47,69.39,27,54,27S26.14,39.47,26.14,54.86c0,11.56,7.04,21.48,17.08,25.69V98h21.57
			V80.56C74.82,76.34,81.86,66.42,81.86,54.86z"/>
		<line class="st0" x1="1" y1="53" x2="13" y2="53"/>
		<line class="st0" x1="54" y1="1" x2="54" y2="13"/>
		<line class="st0" x1="95" y1="53" x2="107" y2="53"/>
		<line class="st0" x1="13.76" y1="16.76" x2="22.24" y2="25.24"/>
		<line class="st0" x1="92.24" y1="16.76" x2="83.76" y2="25.24"/>
		<line class="st0" x1="43" y1="109" x2="65" y2="109"/>
		<line class="st0" x1="49" y1="119" x2="59" y2="119"/>
	</g>
	<polyline class="st0" points="54,98 54,69 65.5,57.5 	"/>
	<polyline class="st0" points="54,98 54,69 42.5,57.5 	"/>
</g>
</svg>
