<?xml version="1.0" encoding="utf-8"?>
<!-- Generator: Adobe Illustrator 23.0.3, SVG Export Plug-In . SVG Version: 6.00 Build 0)  -->
<svg version="1.1" id="Layer_1" xmlns="http://www.w3.org/2000/svg" xmlns:xlink="http://www.w3.org/1999/xlink" x="0px" y="0px"
	 viewBox="0 0 151.98 128.97" style="enable-background:new 0 0 151.98 128.97;" xml:space="preserve">
<style type="text/css">
	.st0{fill:#FFFFFF;stroke:#000000;stroke-width:2;stroke-linecap:round;stroke-linejoin:round;stroke-miterlimit:10;}
	.st1{fill:none;stroke:#000000;stroke-width:2;stroke-linecap:round;stroke-linejoin:round;stroke-miterlimit:10;}
</style>
<g>
	<g>
		<rect x="55.98" y="1.97" class="st0" width="25" height="126"/>
		<g>
			<line class="st1" x1="74.52" y1="10.55" x2="80.98" y2="10.55"/>
			<line class="st1" x1="74.52" y1="5.97" x2="80.98" y2="5.97"/>
			<line class="st1" x1="66.98" y1="19.7" x2="80.98" y2="19.7"/>
			<line class="st1" x1="74.52" y1="15.12" x2="80.98" y2="15.12"/>
			<line class="st1" x1="74.52" y1="28.85" x2="80.98" y2="28.85"/>
			<line class="st1" x1="74.52" y1="24.28" x2="80.98" y2="24.28"/>
			<line class="st1" x1="66.98" y1="38.01" x2="80.98" y2="38.01"/>
			<line class="st1" x1="74.52" y1="33.43" x2="80.98" y2="33.43"/>
			<line class="st1" x1="74.52" y1="47.16" x2="80.98" y2="47.16"/>
			<line class="st1" x1="74.52" y1="42.58" x2="80.98" y2="42.58"/>
			<line class="st1" x1="66.98" y1="56.32" x2="80.98" y2="56.32"/>
			<line class="st1" x1="74.52" y1="51.74" x2="80.98" y2="51.74"/>
			<line class="st1" x1="74.52" y1="65.47" x2="80.98" y2="65.47"/>
			<line class="st1" x1="74.52" y1="60.89" x2="80.98" y2="60.89"/>
			<line class="st1" x1="66.98" y1="74.62" x2="80.98" y2="74.62"/>
			<line class="st1" x1="74.52" y1="70.05" x2="80.98" y2="70.05"/>
			<line class="st1" x1="74.52" y1="83.78" x2="80.98" y2="83.78"/>
			<line class="st1" x1="74.52" y1="79.2" x2="80.98" y2="79.2"/>
			<line class="st1" x1="66.98" y1="92.93" x2="80.98" y2="92.93"/>
			<line class="st1" x1="74.52" y1="88.35" x2="80.98" y2="88.35"/>
			<line class="st1" x1="74.52" y1="102.08" x2="80.98" y2="102.08"/>
			<line class="st1" x1="74.52" y1="97.51" x2="80.98" y2="97.51"/>
			<line class="st1" x1="66.98" y1="111.24" x2="80.98" y2="111.24"/>
			<line class="st1" x1="74.52" y1="106.66" x2="80.98" y2="106.66"/>
			<line class="st1" x1="74.52" y1="120.39" x2="80.98" y2="120.39"/>
			<line class="st1" x1="74.52" y1="115.82" x2="80.98" y2="115.82"/>
			<line class="st1" x1="74.52" y1="124.97" x2="80.98" y2="124.97"/>
		</g>
	</g>
	<g>
		<g>
			<rect x="4.09" y="4.07" class="st1" width="39.95" height="39.95"/>
			<rect x="41.7" y="1" class="st0" width="5.28" height="5.28"/>
			<rect x="41.7" y="41.7" class="st0" width="5.28" height="5.28"/>
			<rect x="1" y="1" class="st0" width="5.28" height="5.28"/>
			<rect x="1" y="41.7" class="st0" width="5.28" height="5.28"/>
		</g>
		<path d="M35.12,9.29H12.86c-0.35,0-0.63,0.28-0.63,0.63v5.97c0,0.34,0.28,0.63,0.63,0.63h0.85c0.34,0,0.63-0.28,0.63-0.63v-4.62
			h8.58v25.44h-3.65c-0.35,0-0.63,0.28-0.63,0.63v0.73c0,0.34,0.28,0.63,0.63,0.63h9.43c0.35,0,0.63-0.28,0.63-0.63v-0.73
			c0-0.34-0.28-0.63-0.63-0.63h-3.65V11.27h8.58v4.62c0,0.34,0.28,0.63,0.63,0.63h0.85c0.35,0,0.63-0.28,0.63-0.63V9.92
			C35.74,9.57,35.46,9.29,35.12,9.29z"/>
	</g>
	<g>
		<circle class="st1" cx="119.98" cy="90.38" r="17.41"/>
		<g>
			<circle class="st1" cx="106.39" cy="109.91" r="17.41"/>
			<circle class="st1" cx="133.57" cy="109.91" r="17.41"/>
		</g>
	</g>
	<g>
		<path class="st0" d="M34.36,107.35L34.36,107.35c-1.25-1.25-1.25-3.27,0-4.52l61.02-64.64c0,0-0.9,0.9,3.16,4.97
			s4.97,3.16,4.97,3.16l-64.64,61.02C37.63,108.6,35.6,108.6,34.36,107.35z"/>
		<path class="st0" d="M90.18,43.84c0,0-0.9,0.9,2.94,4.75s4.75,2.94,4.75,2.94"/>
		<path class="st0" d="M121.31,20.73c0,0-1.95,25.82-13.15,25.82S90.13,37.3,94.03,32.42C97.92,27.55,115.95,21.22,121.31,20.73z"/>
	</g>
</g>
</svg>
