<?xml version="1.0" encoding="utf-8"?>
<!-- Generator: Adobe Illustrator 23.0.6, SVG Export Plug-In . SVG Version: 6.00 Build 0)  -->
<svg version="1.1" id="Layer_1" xmlns="http://www.w3.org/2000/svg" xmlns:xlink="http://www.w3.org/1999/xlink" x="0px" y="0px"
	 viewBox="0 0 152 129" style="enable-background:new 0 0 152 129;" xml:space="preserve">
<style type="text/css">
	.st0{fill:#FFFFFF;}
</style>
<g>
	<path class="st0" d="M40.7,45v2c0,0.6,0.4,1,1,1H47c0.6,0,1-0.4,1-1v-5.3c0-0.6-0.4-1-1-1H45V7.3H47c0.6,0,1-0.4,1-1V1
		c0-0.6-0.4-1-1-1h-5.3c-0.6,0-1,0.4-1,1v2.1H7.3V1c0-0.6-0.4-1-1-1H1C0.4,0,0,0.4,0,1v5.3c0,0.6,0.4,1,1,1h2.1v33.4H1
		c-0.6,0-1,0.4-1,1V47c0,0.6,0.4,1,1,1h5.3c0.6,0,1-0.4,1-1v-2H40.7z M46,46h-3.3v-3.3H46V46z M46,2v3.3h-3.3V2H46z M2,2h3.3v3.3H2
		V2z M5.1,7.3h1.2c0.6,0,1-0.4,1-1V5.1h33.4v1.2c0,0.6,0.4,1,1,1H43v33.4h-1.3c-0.6,0-1,0.4-1,1V43H7.3v-1.3c0-0.6-0.4-1-1-1H5.1
		V7.3z M2,46v-3.3h3.3V46H2z"/>
	<path class="st0" d="M12.9,16.5h0.9c0.3,0,0.6-0.3,0.6-0.6v-4.6h8.6v25.4h-3.6c-0.4,0-0.6,0.3-0.6,0.6v0.7c0,0.3,0.3,0.6,0.6,0.6
		h9.4c0.3,0,0.6-0.3,0.6-0.6v-0.7c0-0.3-0.3-0.6-0.6-0.6H25V11.3h8.6v4.6c0,0.3,0.3,0.6,0.6,0.6h0.8c0.4,0,0.6-0.3,0.6-0.6v-6
		c0-0.4-0.3-0.6-0.6-0.6H12.9c-0.3,0-0.6,0.3-0.6,0.6v6C12.2,16.2,12.5,16.5,12.9,16.5z"/>
	<path class="st0" d="M138.3,92.1c0.1-0.6,0.1-1.2,0.1-1.8c0-10.2-8.3-18.4-18.4-18.4c-10.2,0-18.4,8.3-18.4,18.4
		c0,0.6,0,1.2,0.1,1.8c-7.9,2.1-13.7,9.3-13.7,17.8c0,10.2,8.3,18.4,18.4,18.4c5.4,0,10.2-2.3,13.6-6c3.4,3.7,8.2,6,13.6,6
		c10.2,0,18.4-8.3,18.4-18.4C152,101.4,146.2,94.2,138.3,92.1z M103.6,90.4c0-9,7.4-16.4,16.4-16.4c9,0,16.4,7.4,16.4,16.4
		c0,0.5,0,0.9-0.1,1.3c-0.9-0.1-1.8-0.2-2.8-0.2c-5.4,0-10.2,2.3-13.6,6c-3.4-3.7-8.2-6-13.6-6c-0.9,0-1.9,0.1-2.8,0.2
		C103.6,91.3,103.6,90.8,103.6,90.4z M122.8,109.9c0,3.4-1,6.6-2.8,9.2c-1.8-2.6-2.8-5.8-2.8-9.2c0-0.5,0-0.9,0.1-1.3
		c0.9,0.1,1.8,0.2,2.8,0.2c0.9,0,1.9-0.1,2.8-0.2C122.8,109,122.8,109.5,122.8,109.9z M120,106.8c-0.8,0-1.7-0.1-2.5-0.2
		c0.4-2.1,1.3-4.1,2.5-5.9c1.2,1.7,2,3.7,2.5,5.9C121.6,106.7,120.8,106.8,120,106.8z M115.5,106.2c-5.9-1.6-10.4-6.4-11.6-12.5
		c0.8-0.1,1.6-0.2,2.5-0.2c4.9,0,9.3,2.2,12.3,5.6C117.2,101.2,116.1,103.6,115.5,106.2z M121.3,99.1c3-3.4,7.4-5.6,12.3-5.6
		c0.8,0,1.7,0.1,2.5,0.2c-1.2,6-5.8,10.8-11.6,12.5C123.9,103.6,122.8,101.2,121.3,99.1z M106.4,126.3c-9,0-16.4-7.4-16.4-16.4
		c0-7.5,5.1-13.8,12-15.8c1.4,6.8,6.6,12.2,13.3,14c-0.1,0.6-0.1,1.2-0.1,1.8c0,4,1.3,7.8,3.5,10.8
		C115.7,124.1,111.3,126.3,106.4,126.3z M133.6,126.3c-4.9,0-9.3-2.2-12.3-5.6c2.2-3,3.5-6.8,3.5-10.8c0-0.6,0-1.2-0.1-1.8
		c6.7-1.8,11.9-7.2,13.3-14c6.9,1.9,12,8.3,12,15.8C150,119,142.6,126.3,133.6,126.3z"/>
	<path class="st0" d="M104.1,47.1c1.3,0.3,2.6,0.4,4.1,0.4c12,0,14.1-25.7,14.1-26.7c0-0.3-0.1-0.6-0.3-0.8
		c-0.2-0.2-0.5-0.3-0.8-0.3c-5.4,0.5-23.8,6.8-28,12.1c-1.6,2-1.8,4.7-0.5,7.4c0,0.1,0.1,0.1,0.1,0.2L82,50.9V2c0-0.6-0.4-1-1-1H56
		c-0.6,0-1,0.4-1,1v77.6l-21.3,22.6c-1.6,1.6-1.6,4.3,0,5.9c0.8,0.8,1.8,1.2,3,1.2c0,0,0,0,0,0c1.1,0,2.2-0.4,2.9-1.2L55,93.5V128
		c0,0.6,0.4,1,1,1h25c0.6,0,1-0.4,1-1V68L104.1,47.1z M57,127V91.6l16.9-16H80v2.6h-5.5c-0.6,0-1,0.4-1,1s0.4,1,1,1H80v2.6h-5.5
		c-0.6,0-1,0.4-1,1s0.4,1,1,1H80v2.6h-5.5c-0.6,0-1,0.4-1,1s0.4,1,1,1H80v2.6H67c-0.6,0-1,0.4-1,1s0.4,1,1,1h13v2.6h-5.5
		c-0.6,0-1,0.4-1,1s0.4,1,1,1H80v2.6h-5.5c-0.6,0-1,0.4-1,1s0.4,1,1,1H80v2.6h-5.5c-0.6,0-1,0.4-1,1s0.4,1,1,1H80v2.6H67
		c-0.6,0-1,0.4-1,1s0.4,1,1,1h13v2.6h-5.5c-0.6,0-1,0.4-1,1s0.4,1,1,1H80v2.6h-5.5c-0.6,0-1,0.4-1,1s0.4,1,1,1H80v2.6h-5.5
		c-0.6,0-1,0.4-1,1s0.4,1,1,1H80v1H57z M36.6,107.3c-0.6,0-1.1-0.2-1.5-0.6c0,0,0,0,0,0c-0.9-0.9-0.9-2.2,0-3.1l54.5-57.7
		c0.5,0.9,1.4,2,2.8,3.5c1.4,1.4,2.5,2.3,3.5,2.8l-57.7,54.5C37.7,107.1,37.2,107.3,36.6,107.3C36.6,107.3,36.6,107.3,36.6,107.3z
		 M80,3v2h-5.5c-0.6,0-1,0.4-1,1s0.4,1,1,1H80v2.6h-5.5c-0.6,0-1,0.4-1,1s0.4,1,1,1H80v2.6h-5.5c-0.6,0-1,0.4-1,1s0.4,1,1,1H80v2.6
		H67c-0.6,0-1,0.4-1,1s0.4,1,1,1h13v2.6h-5.5c-0.6,0-1,0.4-1,1s0.4,1,1,1H80v2.6h-5.5c-0.6,0-1,0.4-1,1s0.4,1,1,1H80v2.6h-5.5
		c-0.6,0-1,0.4-1,1s0.4,1,1,1H80V37H67c-0.6,0-1,0.4-1,1s0.4,1,1,1h13v2.6h-5.5c-0.6,0-1,0.4-1,1s0.4,1,1,1H80v2.6h-5.5
		c-0.6,0-1,0.4-1,1s0.4,1,1,1H80v2.6h-5.5c-0.6,0-1,0.4-1,1s0.4,1,1,1H80V53l-2.1,2.3H67c-0.6,0-1,0.4-1,1s0.4,1,1,1h9L57,77.4V3H80
		z M94.6,38.3c-0.6-1.2-1.3-3.4,0.2-5.3c3.3-4.2,18.9-10,25.4-11.2c-0.8,7.6-4.1,23.7-12,23.7C101.2,45.5,96.3,41.8,94.6,38.3z
		 M100,45.8c0.5,0.4,1.1,0.8,1.5,1.1l-4,3.7c0,0,0,0-0.1,0c-0.2,0-1.3-0.4-3.6-2.7c-2.3-2.4-2.7-3.4-2.7-3.6c0,0,0-0.1,0-0.1l2.9-3
		C95.4,42.9,97.4,44.6,100,45.8z M80,71v2.6H76l2.7-2.6H80z"/>
</g>
</svg>
