<?xml version="1.0" encoding="utf-8"?>
<!-- Generator: Adobe Illustrator 23.0.3, SVG Export Plug-In . SVG Version: 6.00 Build 0)  -->
<svg version="1.1" id="Layer_1" xmlns="http://www.w3.org/2000/svg" xmlns:xlink="http://www.w3.org/1999/xlink" x="0px" y="0px"
	 viewBox="0 0 134.66 146.82" style="enable-background:new 0 0 134.66 146.82;" xml:space="preserve">
<style type="text/css">
	.st0{fill:#FFFFFF;stroke:#000000;stroke-width:2;stroke-linecap:round;stroke-linejoin:round;stroke-miterlimit:10;}
	.st1{fill:none;stroke:#000000;stroke-width:2;stroke-linecap:round;stroke-linejoin:round;stroke-miterlimit:10;}
	.st2{fill:none;stroke:#000000;stroke-width:2;stroke-linecap:round;stroke-linejoin:round;}
	.st3{fill:none;stroke:#000000;stroke-width:2;stroke-linecap:round;stroke-linejoin:round;stroke-dasharray:2,6;}
	.st4{fill:none;stroke:#000000;stroke-width:2;stroke-linecap:round;stroke-linejoin:round;stroke-dasharray:2.037,6.1111;}
</style>
<g>
	<rect x="1" y="1" class="st0" width="114" height="126"/>
	<g>
		<rect x="12" y="12" class="st1" width="92" height="37"/>
		<line class="st1" x1="12" y1="12" x2="104" y2="49"/>
		<line class="st1" x1="104" y1="12" x2="12" y2="49"/>
	</g>
	<line class="st1" x1="39.5" y1="61" x2="68.5" y2="61"/>
	<line class="st1" x1="39.5" y1="69" x2="68.5" y2="69"/>
	<line class="st1" x1="39.5" y1="77" x2="68.5" y2="77"/>
	<line class="st1" x1="28.5" y1="90" x2="68.5" y2="90"/>
	<line class="st1" x1="28.5" y1="97.67" x2="68.5" y2="97.67"/>
	<line class="st1" x1="28.5" y1="105.33" x2="68.5" y2="105.33"/>
	<rect x="11.5" y="60" class="st1" width="20" height="20"/>
	<g>
		<g>
			<polyline class="st2" points="104.5,116 104.5,117 103.5,117 			"/>
			<line class="st3" x1="97.5" y1="117" x2="84.5" y2="117"/>
			<polyline class="st2" points="81.5,117 80.5,117 80.5,116 			"/>
			<line class="st4" x1="80.5" y1="109.89" x2="80.5" y2="64.06"/>
			<polyline class="st2" points="80.5,61 80.5,60 81.5,60 			"/>
			<line class="st3" x1="87.5" y1="60" x2="100.5" y2="60"/>
			<polyline class="st2" points="103.5,60 104.5,60 104.5,61 			"/>
			<line class="st4" x1="104.5" y1="67.11" x2="104.5" y2="112.94"/>
		</g>
	</g>
	<rect x="99.5" y="80" class="st0" width="24" height="57"/>
	<circle class="st1" cx="17" cy="93.5" r="4.5"/>
	<circle class="st1" cx="17" cy="108.5" r="4.5"/>
	<line class="st1" x1="28.5" y1="113" x2="68.5" y2="113"/>
	<g>
		<polygon class="st0" points="118.77,142.25 130.09,130.93 112.7,125.14 		"/>
		
			<rect x="126.17" y="134.99" transform="matrix(0.7071 -0.7071 0.7071 0.7071 -61.7388 131.856)" class="st0" width="4.25" height="10.93"/>
	</g>
</g>
</svg>
