<?xml version="1.0" encoding="utf-8"?>
<!-- Generator: Adobe Illustrator 23.0.6, SVG Export Plug-In . SVG Version: 6.00 Build 0)  -->
<svg version="1.1" id="Layer_1" xmlns="http://www.w3.org/2000/svg" xmlns:xlink="http://www.w3.org/1999/xlink" x="0px" y="0px"
	 viewBox="0 0 134.7 146.8" style="enable-background:new 0 0 134.7 146.8;" xml:space="preserve">
<style type="text/css">
	.st0{fill:#FFFFFF;}
</style>
<g>
	<path class="st0" d="M11,49L11,49c0,0.1,0,0.1,0,0.2c0,0.1,0,0.1,0,0.2c0,0,0,0,0,0c0,0,0,0,0,0c0,0.1,0.1,0.2,0.2,0.2
		c0,0,0.1,0,0.1,0.1c0.1,0.1,0.1,0.1,0.2,0.1c0,0,0.1,0,0.1,0c0.1,0,0.2,0.1,0.3,0.1c0,0,0,0,0,0h92c0,0,0,0,0,0
		c0.1,0,0.2,0,0.3-0.1c0,0,0.1,0,0.1,0c0.1,0,0.1-0.1,0.2-0.1c0,0,0.1,0,0.1-0.1c0.1-0.1,0.1-0.2,0.2-0.2c0,0,0,0,0,0c0,0,0,0,0,0
		c0-0.1,0-0.1,0-0.2c0-0.1,0-0.1,0-0.2v0c0,0,0,0,0,0V12c0,0,0,0,0,0v0c0-0.1,0-0.1,0-0.2c0-0.1,0-0.1,0-0.2c0,0,0,0,0,0
		c0-0.1-0.1-0.2-0.2-0.3c0,0,0,0,0-0.1c0,0-0.1,0-0.1-0.1c-0.1-0.1-0.1-0.1-0.2-0.2c0,0,0,0,0,0c-0.1,0-0.2-0.1-0.3-0.1c0,0,0,0,0,0
		H12c0,0,0,0,0,0c-0.1,0-0.3,0-0.4,0.1c0,0,0,0,0,0c-0.1,0-0.2,0.1-0.3,0.2c0,0,0,0,0,0c0,0,0,0.1-0.1,0.1c-0.1,0.1-0.1,0.2-0.2,0.2
		c0,0,0,0,0,0c0,0.1,0,0.1,0,0.2c0,0.1,0,0.1,0,0.2v0c0,0,0,0,0,0V49C11,49,11,49,11,49z M103,47.5l-42.3-17l42.3-17V47.5z M98.8,48
		H17.2L58,31.6L98.8,48z M58,29.4L17.2,13h81.7L58,29.4z M55.3,30.5L13,47.5v-34L55.3,30.5z"/>
	<path class="st0" d="M68.5,60h-29c-0.6,0-1,0.4-1,1s0.4,1,1,1h29c0.6,0,1-0.4,1-1S69.1,60,68.5,60z"/>
	<path class="st0" d="M68.5,68h-29c-0.6,0-1,0.4-1,1s0.4,1,1,1h29c0.6,0,1-0.4,1-1S69.1,68,68.5,68z"/>
	<path class="st0" d="M68.5,76h-29c-0.6,0-1,0.4-1,1s0.4,1,1,1h29c0.6,0,1-0.4,1-1S69.1,76,68.5,76z"/>
	<path class="st0" d="M68.5,89h-40c-0.6,0-1,0.4-1,1s0.4,1,1,1h40c0.6,0,1-0.4,1-1S69.1,89,68.5,89z"/>
	<path class="st0" d="M68.5,96.7h-40c-0.6,0-1,0.4-1,1s0.4,1,1,1h40c0.6,0,1-0.4,1-1S69.1,96.7,68.5,96.7z"/>
	<path class="st0" d="M68.5,104.3h-40c-0.6,0-1,0.4-1,1s0.4,1,1,1h40c0.6,0,1-0.4,1-1S69.1,104.3,68.5,104.3z"/>
	<path class="st0" d="M31.5,81c0.6,0,1-0.4,1-1V60c0-0.6-0.4-1-1-1h-20c-0.6,0-1,0.4-1,1v20c0,0.6,0.4,1,1,1H31.5z M12.5,61h18v18
		h-18V61z"/>
	<path class="st0" d="M97.5,116h-2c-0.6,0-1,0.4-1,1s0.4,1,1,1h2c0.6,0,1-0.4,1-1S98.1,116,97.5,116z"/>
	<path class="st0" d="M89.5,116h-2c-0.6,0-1,0.4-1,1s0.4,1,1,1h2c0.6,0,1-0.4,1-1S90.1,116,89.5,116z"/>
	<path class="st0" d="M81.5,116c0-0.6-0.4-1-1-1s-1,0.4-1,1v1c0,0.6,0.4,1,1,1h1c0.6,0,1-0.4,1-1S82.1,116,81.5,116z"/>
	<path class="st0" d="M81.5,91.6c0-0.6-0.4-1-1-1s-1,0.4-1,1v2c0,0.6,0.4,1,1,1s1-0.4,1-1V91.6z"/>
	<path class="st0" d="M81.5,99.7c0-0.6-0.4-1-1-1s-1,0.4-1,1v2c0,0.6,0.4,1,1,1s1-0.4,1-1V99.7z"/>
	<path class="st0" d="M80.5,106.9c-0.6,0-1,0.4-1,1v2c0,0.6,0.4,1,1,1s1-0.4,1-1v-2C81.5,107.3,81.1,106.9,80.5,106.9z"/>
	<path class="st0" d="M81.5,75.3c0-0.6-0.4-1-1-1s-1,0.4-1,1v2c0,0.6,0.4,1,1,1s1-0.4,1-1V75.3z"/>
	<path class="st0" d="M81.5,83.4c0-0.6-0.4-1-1-1s-1,0.4-1,1v2c0,0.6,0.4,1,1,1s1-0.4,1-1V83.4z"/>
	<path class="st0" d="M81.5,67.1c0-0.6-0.4-1-1-1s-1,0.4-1,1v2c0,0.6,0.4,1,1,1s1-0.4,1-1V67.1z"/>
	<path class="st0" d="M81.5,59h-1c-0.6,0-1,0.4-1,1v1c0,0.6,0.4,1,1,1s1-0.4,1-1c0.6,0,1-0.4,1-1S82.1,59,81.5,59z"/>
	<path class="st0" d="M89.5,59h-2c-0.6,0-1,0.4-1,1s0.4,1,1,1h2c0.6,0,1-0.4,1-1S90.1,59,89.5,59z"/>
	<path class="st0" d="M97.5,59h-2c-0.6,0-1,0.4-1,1s0.4,1,1,1h2c0.6,0,1-0.4,1-1S98.1,59,97.5,59z"/>
	<path class="st0" d="M103.5,59c-0.6,0-1,0.4-1,1s0.4,1,1,1c0,0.6,0.4,1,1,1s1-0.4,1-1v-1c0-0.6-0.4-1-1-1H103.5z"/>
	<path class="st0" d="M104.5,74.3c-0.6,0-1,0.4-1,1v2c0,0.6,0.4,1,1,1s1-0.4,1-1v-2C105.5,74.7,105.1,74.3,104.5,74.3z"/>
	<path class="st0" d="M104.5,66.1c-0.6,0-1,0.4-1,1v2c0,0.6,0.4,1,1,1s1-0.4,1-1v-2C105.5,66.6,105.1,66.1,104.5,66.1z"/>
	<path class="st0" d="M17,88c-3,0-5.5,2.5-5.5,5.5S14,99,17,99s5.5-2.5,5.5-5.5S20,88,17,88z M17,97c-1.9,0-3.5-1.6-3.5-3.5
		S15.1,90,17,90s3.5,1.6,3.5,3.5S18.9,97,17,97z"/>
	<path class="st0" d="M17,103c-3,0-5.5,2.5-5.5,5.5S14,114,17,114s5.5-2.5,5.5-5.5S20,103,17,103z M17,112c-1.9,0-3.5-1.6-3.5-3.5
		s1.6-3.5,3.5-3.5s3.5,1.6,3.5,3.5S18.9,112,17,112z"/>
	<path class="st0" d="M68.5,112h-40c-0.6,0-1,0.4-1,1s0.4,1,1,1h40c0.6,0,1-0.4,1-1S69.1,112,68.5,112z"/>
	<path class="st0" d="M134.4,142.1l-7-7l3.5-3.5c0.2-0.2,0.3-0.6,0.3-0.9c-0.1-0.3-0.3-0.6-0.7-0.7l-5.9-2V80c0-0.6-0.4-1-1-1H116V1
		c0-0.6-0.4-1-1-1H1C0.4,0,0,0.4,0,1v126c0,0.6,0.4,1,1,1h97.5v9c0,0.6,0.4,1,1,1h16.7l1.6,4.6c0.1,0.3,0.4,0.6,0.7,0.6
		c0.1,0,0.1,0,0.2,0c0.3,0,0.5-0.1,0.7-0.3l3.5-3.5l7,7c0.2,0.2,0.5,0.3,0.7,0.3s0.5-0.1,0.7-0.3l3-3
		C134.8,143.1,134.8,142.5,134.4,142.1z M130.7,144.4l-6.3-6.3l1.6-1.6l6.3,6.3L130.7,144.4z M100.5,81h22v46.3l-9.5-3.2
		c-0.4-0.1-0.8,0-1,0.2c-0.3,0.3-0.4,0.7-0.2,1l3.7,10.5h-15V81z M2,2h112v77H99.5c-0.6,0-1,0.4-1,1v37v9H2V2z M114.3,126.7
		l13.9,4.6l-3,3c0,0,0,0,0,0l-3,3c0,0,0,0,0,0l-3,3L114.3,126.7z"/>
</g>
</svg>
