<svg width="48" height="48" viewBox="0 0 48 48" fill="none" xmlns="http://www.w3.org/2000/svg">
<g clip-path="url(#clip0_1_3)">
<path d="M36 28.1643C36 21.4466 30.6272 16 24.0005 16C17.3728 16 12 21.4466 12 28.1643C12 33.2138 15.0352 37.5426 19.3554 39.3833V47H28.6457V39.3833C32.9659 37.5426 36 33.2138 36 28.1643Z" stroke="white" stroke-linecap="round" stroke-linejoin="round"/>
<path d="M1.07677 25.5286H6.30251" stroke="white" stroke-linecap="round" stroke-linejoin="round"/>
<path d="M24.1537 0.999916V6.66113" stroke="white" stroke-linecap="round" stroke-linejoin="round"/>
<path d="M42.0058 25.5286H47.2304" stroke="white" stroke-linecap="round" stroke-linejoin="round"/>
<path d="M6.63145 8.43297L10.3264 12.4358" stroke="white" stroke-linecap="round" stroke-linejoin="round"/>
<path d="M40.8054 8.43297L37.1105 12.4358" stroke="white" stroke-linecap="round" stroke-linejoin="round"/>
<path d="M21.6499 46.7551V33.0761L26.6574 27.6513" stroke="white" stroke-linecap="round" stroke-linejoin="round"/>
<path d="M26.657 46.7551V33.0761L21.6495 27.6513" stroke="white" stroke-linecap="round" stroke-linejoin="round"/>
</g>
<defs>
<clipPath id="clip0_1_3">
<rect width="48" height="48" fill="white"/>
</clipPath>
</defs>
</svg>
