<svg width="48" height="48" viewBox="0 0 48 48" fill="none" xmlns="http://www.w3.org/2000/svg">
<g clip-path="url(#clip0_1_89)">
<path d="M29 11H19V1H29V11Z" stroke="white" stroke-linecap="round" stroke-linejoin="round"/>
<path d="M29 47H19V37H29V47Z" stroke="white" stroke-linecap="round" stroke-linejoin="round"/>
<path d="M11 47H1V37H11V47Z" stroke="white" stroke-linecap="round" stroke-linejoin="round"/>
<path d="M47 47H37V37H47V47Z" stroke="white" stroke-linecap="round" stroke-linejoin="round"/>
<path d="M24 28L20 24.0005L24 20L28 24.0005L24 28Z" stroke="white" stroke-linecap="round" stroke-linejoin="round"/>
<path d="M9 24C9 25.6564 7.65644 27 6 27C4.34356 27 3 25.6564 3 24C3 22.3436 4.34356 21 6 21C7.65644 21 9 22.3436 9 24Z" stroke="white" stroke-linecap="round" stroke-linejoin="round"/>
<path d="M45 24C45 25.6564 43.6565 27 42 27C40.3435 27 39 25.6564 39 24C39 22.3436 40.3435 21 42 21C43.6565 21 45 22.3436 45 24Z" stroke="white" stroke-linecap="round" stroke-linejoin="round"/>
<path d="M23.7688 12.1415V19.7017" stroke="white" stroke-linecap="round" stroke-linejoin="round"/>
<path d="M27.4318 24.0786H38.7867" stroke="white" stroke-linecap="round" stroke-linejoin="round"/>
<path d="M8.75031 24.0786H20.1052" stroke="white" stroke-linecap="round" stroke-linejoin="round"/>
<path d="M6 27L6 37" stroke="white" stroke-linecap="round" stroke-linejoin="round"/>
<path d="M24 28L24 37" stroke="white" stroke-linecap="round" stroke-linejoin="round"/>
<path d="M42 27L42 37" stroke="white" stroke-linecap="round" stroke-linejoin="round"/>
</g>
<defs>
<clipPath id="clip0_1_89">
<rect width="48" height="48" fill="white"/>
</clipPath>
</defs>
</svg>
