<svg width="50" height="46" viewBox="0 0 50 46" fill="none" xmlns="http://www.w3.org/2000/svg">
<path d="M29.878 5.80691H5.4878C3.13415 5.80691 1.21951 7.72155 1.21951 10.0752V18.6069C1.21951 18.613 1.24512 19.2215 1.8122 19.2215C2.7939 19.2215 5.16707 15.563 9.01219 15.563C12.9768 15.563 15.8537 18.6398 15.8537 22.8801C15.8537 27.1203 12.9768 30.1972 9.01219 30.1972C5.16707 30.1972 2.7939 26.5386 1.8122 26.5386C1.24512 26.5386 1.21951 27.1472 1.21951 27.1533V35.685C1.21951 38.0386 3.13415 39.9533 5.4878 39.9533H29.878C32.2317 39.9533 34.1463 38.0386 34.1463 35.685V27.1533C34.1463 26.1423 34.9512 25.3191 35.9402 25.3191C37.9951 25.3191 39.3085 28.9776 43.0537 28.9776C46.3183 28.9776 48.7805 26.3569 48.7805 22.8801C48.7805 19.4033 46.3183 16.7825 43.0537 16.7825C39.3085 16.7825 37.9951 20.4411 35.9402 20.4411C34.9512 20.4411 34.1463 19.6179 34.1463 18.6069V10.0752C34.1463 7.72155 32.2317 5.80691 29.878 5.80691ZM29.878 4.5874C32.9037 4.5874 35.3659 7.0496 35.3659 10.0752V18.6069C35.3659 18.9398 35.6293 19.2215 35.9402 19.2215C37.0927 19.2215 38.9524 15.563 43.0537 15.563C47.0134 15.563 50 18.7094 50 22.8801C50 27.0508 47.0134 30.1972 43.0537 30.1972C38.9524 30.1972 37.0927 26.5386 35.9402 26.5386C35.6293 26.5386 35.3659 26.8203 35.3659 27.1533V35.685C35.3659 38.7106 32.9037 41.1728 29.878 41.1728H5.4878C2.4622 41.1728 0 38.7106 0 35.685V27.1533C0 26.252 0.678049 25.3191 1.8122 25.3191C3.62805 25.3191 5.52439 28.9776 9.01219 28.9776C12.322 28.9776 14.6341 26.4703 14.6341 22.8801C14.6341 19.2898 12.322 16.7825 9.01219 16.7825C5.52439 16.7825 3.62927 20.4411 1.8122 20.4411C0.678049 20.4411 0 19.5081 0 18.6069V10.0752C0 7.0496 2.4622 4.5874 5.4878 4.5874H29.878Z" fill="black"/>
</svg>
