<svg width="48" height="48" viewBox="0 0 48 48" fill="none" xmlns="http://www.w3.org/2000/svg">
<g clip-path="url(#clip0_1_103)">
<path d="M36.6311 34.5V46.76H1.25366V1.00002H36.6311V13" stroke="white" stroke-width="1.04682" stroke-linecap="round" stroke-linejoin="round"/>
<path d="M33.5548 18.1599H4.32996V4.26848H33.5548V18.1599Z" stroke="white" stroke-width="1.04682" stroke-linecap="round" stroke-linejoin="round"/>
<path d="M4.32996 4.26848L33.5548 18.1599" stroke="white" stroke-width="1.04682" stroke-linecap="round" stroke-linejoin="round"/>
<path d="M33.5548 4.26848L4.32996 18.1599" stroke="white" stroke-width="1.04682" stroke-linecap="round" stroke-linejoin="round"/>
<path d="M13.5588 23.0627H22.0186" stroke="white" stroke-width="1.04682" stroke-linecap="round" stroke-linejoin="round"/>
<path d="M13.5588 25.5144H22.0186" stroke="white" stroke-width="1.04682" stroke-linecap="round" stroke-linejoin="round"/>
<path d="M13.5588 28.783H22.0186" stroke="white" stroke-width="1.04682" stroke-linecap="round" stroke-linejoin="round"/>
<path d="M9.71368 33.6858H22.0189" stroke="white" stroke-width="1.04682" stroke-linecap="round" stroke-linejoin="round"/>
<path d="M9.71368 36.1372H22.0189" stroke="white" stroke-width="1.04682" stroke-linecap="round" stroke-linejoin="round"/>
<path d="M9.71368 39.4058H22.0189" stroke="white" stroke-width="1.04682" stroke-linecap="round" stroke-linejoin="round"/>
<path d="M10.4825 29.6001H4.32996V22.2458H10.4825V29.6001Z" stroke="white" stroke-width="1.04682" stroke-linecap="round" stroke-linejoin="round"/>
<path d="M33.5549 42.6743V43.4915H32.7859" stroke="white" stroke-width="1.04682" stroke-linecap="round" stroke-linejoin="round"/>
<path d="M30.4784 43.4915H27.4021" stroke="white" stroke-width="1.04682" stroke-linecap="round" stroke-linejoin="round" stroke-dasharray="1.24 3.72"/>
<path d="M26.633 43.4915H25.864V42.6743" stroke="white" stroke-width="1.04682" stroke-linecap="round" stroke-linejoin="round"/>
<path d="M25.864 40.2229V23.88" stroke="white" stroke-width="1.04682" stroke-linecap="round" stroke-linejoin="round" stroke-dasharray="0.96 2.88"/>
<path d="M25.864 23.0627V22.2456H26.633" stroke="white" stroke-width="1.04682" stroke-linecap="round" stroke-linejoin="round"/>
<path d="M28.9402 22.2456H31.2475" stroke="white" stroke-width="1.04682" stroke-linecap="round" stroke-linejoin="round" stroke-dasharray="1.24 3.72"/>
<path d="M32.7859 22.2456H33.5549V23.0627" stroke="white" stroke-width="1.04682" stroke-linecap="round" stroke-linejoin="round"/>
<path d="M33.5547 25.5143V41.8572" stroke="white" stroke-width="1.04682" stroke-linecap="round" stroke-linejoin="round" stroke-dasharray="0.96 2.88"/>
<path d="M7.4065 34.5029C7.4065 35.4054 6.88996 36.1372 6.25288 36.1372C5.61582 36.1372 5.09927 35.4054 5.09927 34.5029C5.09927 33.6004 5.61582 32.8686 6.25288 32.8686C6.88996 32.8686 7.4065 33.6004 7.4065 34.5029Z" stroke="white" stroke-width="1.04682" stroke-linecap="round" stroke-linejoin="round"/>
<path d="M7.4065 40.2229C7.4065 41.1254 6.88996 41.8572 6.25288 41.8572C5.61582 41.8572 5.09927 41.1254 5.09927 40.2229C5.09927 39.3204 5.61582 38.5886 6.25288 38.5886C6.88996 38.5886 7.4065 39.3204 7.4065 40.2229Z" stroke="white" stroke-width="1.04682" stroke-linecap="round" stroke-linejoin="round"/>
<path d="M9.71368 41.8572H22.0189" stroke="white" stroke-width="1.04682" stroke-linecap="round" stroke-linejoin="round"/>
<path d="M41.4118 34.5186H34.5745V13.4529H42.9229V31" stroke="white" stroke-width="1.04682" stroke-linecap="round" stroke-linejoin="round"/>
<path d="M42.2205 36.4583L46.1553 32.2766L40.1089 30.1352L42.2205 36.4583Z" stroke="white" stroke-width="1.04682" stroke-linecap="round" stroke-linejoin="round"/>
<path d="M47.3985 36.6675L46.3535 37.7778L43.6659 34.9223L44.7109 33.812L47.3985 36.6675Z" stroke="white" stroke-width="1.04682" stroke-linecap="round" stroke-linejoin="round"/>
</g>
<defs>
<clipPath id="clip0_1_103">
<rect width="48" height="48" fill="white"/>
</clipPath>
</defs>
</svg>
