<svg width="46" height="46" viewBox="0 0 46 46" fill="none" xmlns="http://www.w3.org/2000/svg">
<path d="M14.5665 5.20142C12.474 5.20142 10.5616 6.22431 9.57751 7.87013C9.21632 8.47348 8.75959 9.39792 8.18051 10.697C7.82051 11.5011 1.24139 27.0458 0.961914 27.7073L0.968853 27.7095C0.404431 28.8481 0.0830078 30.1071 0.0830078 31.4341C0.0830078 36.4651 4.5984 40.5586 10.1488 40.5586C15.6992 40.5586 20.2146 36.4651 20.2146 31.4341V27.3754C20.5641 27.2161 21.3931 26.8719 22.583 26.8719C23.7729 26.8719 24.6019 27.2161 24.9514 27.3754V31.4341C24.9514 36.4651 29.4668 40.5586 35.0172 40.5586C40.5676 40.5586 45.083 36.4651 45.083 31.4341C45.083 30.1071 44.7616 28.8481 44.1972 27.7095L44.2018 27.7073C43.9211 27.0458 37.3455 11.5033 36.9855 10.6992C36.4064 9.40015 35.9485 8.47571 35.5885 7.87236C34.6056 6.2254 32.6932 5.20142 30.5996 5.20142C27.509 5.20142 24.9969 7.42676 24.9584 10.1735C24.3702 9.97214 23.5457 9.76363 22.583 9.76363C21.6203 9.76363 20.7958 9.97214 20.2076 10.1735C20.1691 7.42676 17.657 5.20142 14.5665 5.20142ZM14.5665 6.34197C17.0284 6.34197 19.0304 8.08823 19.0304 10.2359V27.1482C17.3346 24.272 13.9909 22.3097 10.1488 22.3097C7.64421 22.3097 5.35499 23.1492 3.59169 24.5262C5.42613 20.1931 8.98876 11.7743 9.26758 11.1492C9.82297 9.9083 10.2717 8.99814 10.6044 8.44041C11.3777 7.14702 12.8955 6.34197 14.5665 6.34197ZM30.5996 6.34197C32.2705 6.34197 33.7872 7.14697 34.5593 8.44264C34.892 8.99923 35.343 9.91053 35.8984 11.1514C36.1772 11.7765 39.7373 20.1924 41.572 24.5262C39.8089 23.1498 37.5212 22.3097 35.0172 22.3097C31.1751 22.3097 27.8314 24.272 26.1356 27.1482V10.2359C26.1356 8.08823 28.1376 6.34197 30.5996 6.34197ZM22.583 10.9042C23.7729 10.9042 24.6019 11.2484 24.9514 11.4076V18.1552C24.3636 17.9546 23.5413 17.7475 22.583 17.7475C21.6247 17.7475 20.8024 17.9546 20.2146 18.1552V11.4076C20.5641 11.2484 21.3931 10.9042 22.583 10.9042ZM22.583 18.8881C23.7729 18.8881 24.6019 19.2323 24.9514 19.3915V26.139C24.3636 25.9385 23.5413 25.7314 22.583 25.7314C21.6247 25.7314 20.8024 25.9385 20.2146 26.139V19.3915C20.5641 19.2323 21.3931 18.8881 22.583 18.8881ZM10.1488 23.4503C15.0467 23.4503 19.0304 27.0316 19.0304 31.4341C19.0304 35.8367 15.0467 39.418 10.1488 39.418C5.2509 39.418 1.26722 35.8367 1.26722 31.4341C1.26722 27.0316 5.2509 23.4503 10.1488 23.4503ZM35.0172 23.4503C39.9151 23.4503 43.8988 27.0316 43.8988 31.4341C43.8988 35.8367 39.9151 39.418 35.0172 39.418C30.1193 39.418 26.1356 35.8367 26.1356 31.4341C26.1356 27.0316 30.1193 23.4503 35.0172 23.4503Z" fill="black"/>
</svg>
