<svg width="56" height="48" viewBox="0 0 56 48" fill="none" xmlns="http://www.w3.org/2000/svg">
<path d="M29.7692 46.76H20.7578V1.34818H29.7692V46.76Z" fill="white"/>
<path d="M29.7692 46.76H20.7578V1.34818H29.7692V46.76Z" stroke="black" stroke-width="1.04682" stroke-linecap="round" stroke-linejoin="round"/>
<path d="M27.4399 4.43945H29.7694" stroke="black" stroke-width="1.04682" stroke-linecap="round" stroke-linejoin="round"/>
<path d="M27.4399 2.79028H29.7694" stroke="black" stroke-width="1.04682" stroke-linecap="round" stroke-linejoin="round"/>
<path d="M24.7231 7.73901H29.7693" stroke="black" stroke-width="1.04682" stroke-linecap="round" stroke-linejoin="round"/>
<path d="M27.4399 6.08936H29.7694" stroke="black" stroke-width="1.04682" stroke-linecap="round" stroke-linejoin="round"/>
<path d="M27.4399 11.0381H29.7694" stroke="black" stroke-width="1.04682" stroke-linecap="round" stroke-linejoin="round"/>
<path d="M27.4399 9.38843H29.7694" stroke="black" stroke-width="1.04682" stroke-linecap="round" stroke-linejoin="round"/>
<path d="M24.7231 14.3372H29.7693" stroke="black" stroke-width="1.04682" stroke-linecap="round" stroke-linejoin="round"/>
<path d="M27.4399 12.6875H29.7694" stroke="black" stroke-width="1.04682" stroke-linecap="round" stroke-linejoin="round"/>
<path d="M27.4399 17.6362H29.7694" stroke="black" stroke-width="1.04682" stroke-linecap="round" stroke-linejoin="round"/>
<path d="M27.4399 15.9871H29.7694" stroke="black" stroke-width="1.04682" stroke-linecap="round" stroke-linejoin="round"/>
<path d="M24.7231 20.9353H29.7693" stroke="black" stroke-width="1.04682" stroke-linecap="round" stroke-linejoin="round"/>
<path d="M27.4399 19.2859H29.7694" stroke="black" stroke-width="1.04682" stroke-linecap="round" stroke-linejoin="round"/>
<path d="M27.4399 24.2349H29.7694" stroke="black" stroke-width="1.04682" stroke-linecap="round" stroke-linejoin="round"/>
<path d="M27.4399 22.5852H29.7694" stroke="black" stroke-width="1.04682" stroke-linecap="round" stroke-linejoin="round"/>
<path d="M24.7231 27.5339H29.7693" stroke="black" stroke-width="1.04682" stroke-linecap="round" stroke-linejoin="round"/>
<path d="M27.4399 25.8843H29.7694" stroke="black" stroke-width="1.04682" stroke-linecap="round" stroke-linejoin="round"/>
<path d="M27.4399 30.833H29.7694" stroke="black" stroke-width="1.04682" stroke-linecap="round" stroke-linejoin="round"/>
<path d="M27.4399 29.1833H29.7694" stroke="black" stroke-width="1.04682" stroke-linecap="round" stroke-linejoin="round"/>
<path d="M24.7231 34.1321H29.7693" stroke="black" stroke-width="1.04682" stroke-linecap="round" stroke-linejoin="round"/>
<path d="M27.4399 32.4827H29.7694" stroke="black" stroke-width="1.04682" stroke-linecap="round" stroke-linejoin="round"/>
<path d="M27.4399 37.4312H29.7694" stroke="black" stroke-width="1.04682" stroke-linecap="round" stroke-linejoin="round"/>
<path d="M27.4399 35.7817H29.7694" stroke="black" stroke-width="1.04682" stroke-linecap="round" stroke-linejoin="round"/>
<path d="M24.7231 40.7307H29.7693" stroke="black" stroke-width="1.04682" stroke-linecap="round" stroke-linejoin="round"/>
<path d="M27.4399 39.0808H29.7694" stroke="black" stroke-width="1.04682" stroke-linecap="round" stroke-linejoin="round"/>
<path d="M27.4399 44.0298H29.7694" stroke="black" stroke-width="1.04682" stroke-linecap="round" stroke-linejoin="round"/>
<path d="M27.4399 42.3799H29.7694" stroke="black" stroke-width="1.04682" stroke-linecap="round" stroke-linejoin="round"/>
<path d="M27.4399 45.679H29.7694" stroke="black" stroke-width="1.04682" stroke-linecap="round" stroke-linejoin="round"/>
<path d="M16.4555 16.5034H2.05811V2.10601H16.4555V16.5034Z" stroke="black" stroke-width="1.04682" stroke-linecap="round" stroke-linejoin="round"/>
<path d="M17.5149 2.90112H15.6128V0.999971H17.5149V2.90112Z" fill="white"/>
<path d="M17.5149 2.90112H15.6128V0.999971H17.5149V2.90112Z" stroke="black" stroke-width="1.04682" stroke-linecap="round" stroke-linejoin="round"/>
<path d="M17.5149 17.5696H15.6128V15.6684H17.5149V17.5696Z" fill="white"/>
<path d="M17.5149 17.5696H15.6128V15.6684H17.5149V17.5696Z" stroke="black" stroke-width="1.04682" stroke-linecap="round" stroke-linejoin="round"/>
<path d="M2.84549 2.90112H0.944336V0.999971H2.84549V2.90112Z" fill="white"/>
<path d="M2.84549 2.90112H0.944336V0.999971H2.84549V2.90112Z" stroke="black" stroke-width="1.04682" stroke-linecap="round" stroke-linejoin="round"/>
<path d="M2.84549 17.5696H0.944336V15.6684H2.84549V17.5696Z" fill="white"/>
<path d="M2.84549 17.5696H0.944336V15.6684H2.84549V17.5696Z" stroke="black" stroke-width="1.04682" stroke-linecap="round" stroke-linejoin="round"/>
<path d="M13.2398 3.98693H5.21896C5.0942 3.98693 4.99365 4.08841 4.99365 4.21317V6.36385C4.99365 6.4886 5.0942 6.58915 5.21896 6.58915H5.52434C5.64817 6.58915 5.74965 6.4886 5.74965 6.36385V4.7001H8.84345V13.8689H7.52977C7.40408 13.8689 7.30353 13.9703 7.30353 14.0942V14.3558C7.30353 14.4805 7.40408 14.582 7.52977 14.582H10.9299C11.0537 14.582 11.1561 14.4805 11.1561 14.3558V14.0942C11.1561 13.9703 11.0537 13.8689 10.9299 13.8689H9.61528V4.7001H12.7091V6.36385C12.7091 6.4886 12.8106 6.58915 12.9353 6.58915H13.2398C13.3645 6.58915 13.466 6.4886 13.466 6.36385V4.21317C13.466 4.08841 13.3645 3.98693 13.2398 3.98693Z" fill="black"/>
<path d="M50.1001 33.2129C50.1001 36.6791 47.2902 39.488 43.8249 39.488C40.3596 39.488 37.5498 36.6791 37.5498 33.2129C37.5498 29.7476 40.3596 26.9378 43.8249 26.9378C47.2902 26.9378 50.1001 29.7476 50.1001 33.2129Z" stroke="black" stroke-width="1.04682" stroke-linecap="round" stroke-linejoin="round"/>
<path d="M45.2022 40.2532C45.2022 43.7185 42.3923 46.5283 38.928 46.5283C35.4617 46.5283 32.6528 43.7185 32.6528 40.2532C32.6528 36.787 35.4617 33.9781 38.928 33.9781C42.3923 33.9781 45.2022 36.787 45.2022 40.2532Z" stroke="black" stroke-width="1.04682" stroke-linecap="round" stroke-linejoin="round"/>
<path d="M54.9975 40.2532C54.9975 43.7185 52.1877 46.5283 48.7224 46.5283C45.2562 46.5283 42.4473 43.7185 42.4473 40.2532C42.4473 36.787 45.2562 33.9781 48.7224 33.9781C52.1877 33.9781 54.9975 36.787 54.9975 40.2532Z" stroke="black" stroke-width="1.04682" stroke-linecap="round" stroke-linejoin="round"/>
<path d="M12.9662 39.3283C12.5165 38.8786 12.5165 38.1486 12.9662 37.699L34.9589 14.4037C34.9589 14.4037 34.6321 14.7286 36.0994 16.195C37.5649 17.6614 37.8907 17.3355 37.8907 17.3355L14.5945 39.3283C14.1458 39.7779 13.4149 39.7779 12.9662 39.3283Z" fill="white"/>
<path d="M12.9662 39.3283C12.5165 38.8786 12.5165 38.1486 12.9662 37.699L34.9589 14.4037C34.9589 14.4037 34.6321 14.7286 36.0994 16.195C37.5649 17.6614 37.8907 17.3355 37.8907 17.3355L14.5945 39.3283C14.1458 39.7779 13.4149 39.7779 12.9662 39.3283Z" stroke="black" stroke-width="1.04682" stroke-linecap="round" stroke-linejoin="round"/>
<path d="M33.0851 16.4393C33.0851 16.4393 32.7593 16.7651 34.1446 18.1496C35.5291 19.5349 35.8549 19.2091 35.8549 19.2091" fill="white"/>
<path d="M33.0851 16.4393C33.0851 16.4393 32.7593 16.7651 34.1446 18.1496C35.5291 19.5349 35.8549 19.2091 35.8549 19.2091" stroke="black" stroke-width="1.04682" stroke-linecap="round" stroke-linejoin="round"/>
<path d="M44.3045 8.10995C44.3045 8.10995 43.6025 17.4165 39.5637 17.4165C35.5249 17.4165 33.067 14.0806 34.471 12.3238C35.8759 10.5688 42.3736 8.28498 44.3045 8.10995Z" fill="white"/>
<path d="M44.3045 8.10995C44.3045 8.10995 43.6025 17.4165 39.5637 17.4165C35.5249 17.4165 33.067 14.0806 34.471 12.3238C35.8759 10.5688 42.3736 8.28498 44.3045 8.10995Z" stroke="black" stroke-width="1.04682" stroke-linecap="round" stroke-linejoin="round"/>
</svg>
