<svg width="48" height="48" viewBox="0 0 48 48" fill="none" xmlns="http://www.w3.org/2000/svg">
<g clip-path="url(#clip0_1_40)">
<path d="M21.7692 46.76H12.7578V1.34818H21.7692V46.76Z" stroke="white" stroke-width="1.04682" stroke-linecap="round" stroke-linejoin="round"/>
<path d="M19.4399 4.43945H21.7694" stroke="white" stroke-width="1.04682" stroke-linecap="round" stroke-linejoin="round"/>
<path d="M19.4399 2.79028H21.7694" stroke="white" stroke-width="1.04682" stroke-linecap="round" stroke-linejoin="round"/>
<path d="M16.7231 7.73901H21.7693" stroke="white" stroke-width="1.04682" stroke-linecap="round" stroke-linejoin="round"/>
<path d="M19.4399 6.08936H21.7694" stroke="white" stroke-width="1.04682" stroke-linecap="round" stroke-linejoin="round"/>
<path d="M19.4399 11.0381H21.7694" stroke="white" stroke-width="1.04682" stroke-linecap="round" stroke-linejoin="round"/>
<path d="M19.4399 9.38843H21.7694" stroke="white" stroke-width="1.04682" stroke-linecap="round" stroke-linejoin="round"/>
<path d="M16.7231 14.3372H21.7693" stroke="white" stroke-width="1.04682" stroke-linecap="round" stroke-linejoin="round"/>
<path d="M19.4399 12.6875H21.7694" stroke="white" stroke-width="1.04682" stroke-linecap="round" stroke-linejoin="round"/>
<path d="M19.4399 17.6362H21.7694" stroke="white" stroke-width="1.04682" stroke-linecap="round" stroke-linejoin="round"/>
<path d="M19.4399 15.9871H21.7694" stroke="white" stroke-width="1.04682" stroke-linecap="round" stroke-linejoin="round"/>
<path d="M16.7231 20.9353H21.7693" stroke="white" stroke-width="1.04682" stroke-linecap="round" stroke-linejoin="round"/>
<path d="M19.4399 19.2859H21.7694" stroke="white" stroke-width="1.04682" stroke-linecap="round" stroke-linejoin="round"/>
<path d="M19.4399 24.2349H21.7694" stroke="white" stroke-width="1.04682" stroke-linecap="round" stroke-linejoin="round"/>
<path d="M19.4399 22.5852H21.7694" stroke="white" stroke-width="1.04682" stroke-linecap="round" stroke-linejoin="round"/>
<path d="M16.7231 27.5339H21.7693" stroke="white" stroke-width="1.04682" stroke-linecap="round" stroke-linejoin="round"/>
<path d="M19.4399 25.8843H21.7694" stroke="white" stroke-width="1.04682" stroke-linecap="round" stroke-linejoin="round"/>
<path d="M19.4399 30.833H21.7694" stroke="white" stroke-width="1.04682" stroke-linecap="round" stroke-linejoin="round"/>
<path d="M19.4399 29.1833H21.7694" stroke="white" stroke-width="1.04682" stroke-linecap="round" stroke-linejoin="round"/>
<path d="M16.7231 34.1321H21.7693" stroke="white" stroke-width="1.04682" stroke-linecap="round" stroke-linejoin="round"/>
<path d="M19.4399 32.4827H21.7694" stroke="white" stroke-width="1.04682" stroke-linecap="round" stroke-linejoin="round"/>
<path d="M19.4399 37.4312H21.7694" stroke="white" stroke-width="1.04682" stroke-linecap="round" stroke-linejoin="round"/>
<path d="M19.4399 35.7817H21.7694" stroke="white" stroke-width="1.04682" stroke-linecap="round" stroke-linejoin="round"/>
<path d="M16.7231 40.7307H21.7693" stroke="white" stroke-width="1.04682" stroke-linecap="round" stroke-linejoin="round"/>
<path d="M19.4399 39.0808H21.7694" stroke="white" stroke-width="1.04682" stroke-linecap="round" stroke-linejoin="round"/>
<path d="M19.4399 44.0298H21.7694" stroke="white" stroke-width="1.04682" stroke-linecap="round" stroke-linejoin="round"/>
<path d="M19.4399 42.3799H21.7694" stroke="white" stroke-width="1.04682" stroke-linecap="round" stroke-linejoin="round"/>
<path d="M19.4399 45.679H21.7694" stroke="white" stroke-width="1.04682" stroke-linecap="round" stroke-linejoin="round"/>
<path d="M42.4555 20.5034H28.0581V6.10602H42.4555V20.5034Z" stroke="white" stroke-width="1.04682" stroke-linecap="round" stroke-linejoin="round"/>
<path d="M43.5149 6.90112H41.6128V4.99997H43.5149V6.90112Z" stroke="white" stroke-width="1.04682" stroke-linecap="round" stroke-linejoin="round"/>
<path d="M43.5149 21.5696H41.6128V19.6684H43.5149V21.5696Z" stroke="white" stroke-width="1.04682" stroke-linecap="round" stroke-linejoin="round"/>
<path d="M28.8455 6.90112H26.9443V4.99997H28.8455V6.90112Z" stroke="white" stroke-width="1.04682" stroke-linecap="round" stroke-linejoin="round"/>
<path d="M28.8455 21.5696H26.9443V19.6684H28.8455V21.5696Z" stroke="white" stroke-width="1.04682" stroke-linecap="round" stroke-linejoin="round"/>
<path d="M39.2398 7.98694H31.219C31.0942 7.98694 30.9937 8.08842 30.9937 8.21318V10.3639C30.9937 10.4886 31.0942 10.5892 31.219 10.5892H31.5243C31.6482 10.5892 31.7497 10.4886 31.7497 10.3639V8.70011H34.8435V17.8689H33.5298C33.4041 17.8689 33.3035 17.9703 33.3035 18.0942V18.3558C33.3035 18.4805 33.4041 18.582 33.5298 18.582H36.9299C37.0537 18.582 37.1561 18.4805 37.1561 18.3558V18.0942C37.1561 17.9703 37.0537 17.8689 36.9299 17.8689H35.6153V8.70011H38.7091V10.3639C38.7091 10.4886 38.8106 10.5892 38.9353 10.5892H39.2398C39.3645 10.5892 39.466 10.4886 39.466 10.3639V8.21318C39.466 8.08842 39.3645 7.98694 39.2398 7.98694Z" fill="white"/>
<path d="M42.1001 33.2129C42.1001 36.6791 39.2902 39.488 35.8249 39.488C32.3596 39.488 29.5498 36.6791 29.5498 33.2129C29.5498 29.7476 32.3596 26.9378 35.8249 26.9378C39.2902 26.9378 42.1001 29.7476 42.1001 33.2129Z" stroke="white" stroke-width="1.04682" stroke-linecap="round" stroke-linejoin="round"/>
<path d="M37.2022 40.2532C37.2022 43.7185 34.3923 46.5283 30.928 46.5283C27.4617 46.5283 24.6528 43.7185 24.6528 40.2532C24.6528 36.787 27.4617 33.9781 30.928 33.9781C34.3923 33.9781 37.2022 36.787 37.2022 40.2532Z" stroke="white" stroke-width="1.04682" stroke-linecap="round" stroke-linejoin="round"/>
<path d="M46.9975 40.2532C46.9975 43.7185 44.1877 46.5283 40.7224 46.5283C37.2562 46.5283 34.4473 43.7185 34.4473 40.2532C34.4473 36.787 37.2562 33.9781 40.7224 33.9781C44.1877 33.9781 46.9975 36.787 46.9975 40.2532Z" stroke="white" stroke-width="1.04682" stroke-linecap="round" stroke-linejoin="round"/>
<path d="M6.01359 44.6181C5.40222 44.6181 4.90601 44.1219 4.90607 43.5106L4 13.5C4 13.5 4.00581 13.5006 6 13.5C7.99296 13.5006 8.00642 12.726 8.00642 12.726L7.12043 43.5113C7.12104 44.1219 6.62421 44.6187 6.01359 44.6181Z" stroke="white" stroke-width="1.04682" stroke-linecap="round" stroke-linejoin="round"/>
<path d="M4.1306 15.3834C4.1306 15.3834 4.1306 15.8263 6.01338 15.8258C7.89616 15.8263 7.89616 15.3834 7.89616 15.3834" stroke="white" stroke-width="1.04682" stroke-linecap="round" stroke-linejoin="round"/>
<path d="M6.09507 2.09512C6.09507 2.09512 11.944 8.89845 9.19865 11.6438C6.45326 14.3892 2.51492 13.7924 2.2751 11.6438C2.03712 9.49588 4.90151 3.52663 6.09507 2.09512Z" stroke="white" stroke-width="1.04682" stroke-linecap="round" stroke-linejoin="round"/>
</g>
<defs>
<clipPath id="clip0_1_40">
<rect width="48" height="48" fill="white"/>
</clipPath>
</defs>
</svg>
