<?xml version="1.0" encoding="utf-8"?>
<svg width="16" height="18" viewBox="0 0 16 18" fill="none" xmlns="http://www.w3.org/2000/svg">
<path d="M8.22 2.5C7.80667 2.5 7.36 2.40667 6.88 2.22C6.85333 2.20667 6.75333 2.17333 6.58 2.12C6.40667 2.05333 6.23333 2.02 6.06 2.02C5.71333 2.02 5.48 2.1 5.36 2.26C5.29333 2.38 5.19333 2.44 5.06 2.44H3.38C3.27333 2.44 3.18 2.40667 3.1 2.34C3.03333 2.26 3 2.17333 3 2.08C3 1.85333 3.08 1.58 3.24 1.26C3.41333 0.926667 3.7 0.633333 4.1 0.38C4.51333 0.126667 5.05333 0 5.72 0C6.13333 0 6.58 0.0933333 7.06 0.28C7.08667 0.293333 7.18667 0.333333 7.36 0.4C7.53333 0.453333 7.70667 0.48 7.88 0.48C8.24 0.48 8.47333 0.4 8.58 0.24C8.64667 0.12 8.74667 0.0600004 8.88 0.0600004H10.56C10.68 0.0600004 10.7733 0.1 10.84 0.18C10.9067 0.246667 10.94 0.333333 10.94 0.44C10.94 0.666666 10.8533 0.94 10.68 1.26C10.52 1.58 10.2333 1.86667 9.82 2.12C9.42 2.37333 8.88667 2.5 8.22 2.5Z" fill="black"/>
<path d="M13.22 10.7C13.74 10.86 14.1866 11.2133 14.56 11.76C14.9333 12.2933 15.12 12.9067 15.12 13.6C15.12 15.08 14.64 16.1867 13.68 16.92C12.72 17.64 11.32 18 9.47995 18H1.23995C1.09328 18 0.966618 17.9467 0.859951 17.84C0.753285 17.7333 0.699951 17.6067 0.699951 17.46V4.54C0.699951 4.39333 0.753285 4.26667 0.859951 4.16C0.966618 4.05333 1.09328 4 1.23995 4H9.27995C11.1733 4 12.5666 4.34667 13.46 5.04C14.3666 5.72 14.82 6.75333 14.82 8.14V8.2C14.82 8.84 14.6466 9.38667 14.3 9.84C13.9533 10.2933 13.5933 10.58 13.22 10.7ZM9.39995 8.32C9.39995 8.08 9.32662 7.87333 9.17995 7.7C9.04662 7.52667 8.84662 7.44 8.57995 7.44H5.89995V9.26H8.57995C8.84662 9.26 9.04662 9.16667 9.17995 8.98C9.32662 8.78 9.39995 8.56 9.39995 8.32ZM8.79995 14.56C9.10662 14.56 9.33328 14.46 9.47995 14.26C9.63995 14.0467 9.71995 13.8133 9.71995 13.56V13.54C9.71995 13.2867 9.63328 13.0667 9.45995 12.88C9.29995 12.6933 9.07995 12.6 8.79995 12.6H5.89995V14.56H8.79995Z" fill="black"/>
</svg>

