<svg width="500" height="500" viewBox="0 0 500 500" fill="none" xmlns="http://www.w3.org/2000/svg">
<rect width="500" height="500" fill="white"/>
<path d="M418.934 115.03C418.164 113.496 416.637 112.727 415.11 112.727H384.909C383.382 112.727 381.855 113.496 381.091 115.03L327.962 216.016C327.198 207.183 321.842 198.356 314.581 192.975C302.732 184.532 282.094 178.772 258.77 176.848C245.395 175.694 206.025 173.776 193.798 169.554C184.624 166.097 180.037 161.101 180.037 153.807C180.037 133.844 217.489 132.299 230.107 132.299C257.628 132.299 279.035 138.06 297.003 147.277C298.909 148.426 301.199 147.662 302.347 145.744L309.615 131.92C310.763 129.617 310.373 126.929 307.698 125.39C286.675 113.485 261.83 108.5 232.782 108.5C210.991 108.5 189.969 111.567 172.764 121.933C169.326 123.857 166.65 126.16 163.975 128.463C156.329 118.097 140.272 112.716 123.843 112.716H4.58676C1.90604 112.716 0 114.639 0 116.942V269.001C0 271.689 1.90604 273.607 4.58676 273.607H22.5493C24.8399 273.607 26.757 271.683 26.757 269.001V140.753C26.757 138.45 28.6687 136.526 30.9648 136.526H116.971C138.372 136.526 149.457 145.359 149.457 163.404C149.457 179.921 139.135 188.363 118.498 188.363H55.8102L43.198 212.174H118.119C137.224 212.174 151.753 207.947 161.69 199.504C165.129 196.432 167.804 192.975 170.1 189.138C180.801 194.129 199.148 197.965 225.52 199.504C255.337 201.417 273.679 203.341 280.562 205.265C293.564 208.722 300.057 215.24 300.057 225.612C300.057 250.192 261.836 254.029 241.961 254.029C214.82 254.029 188.068 248.648 165.514 233.676C163.223 232.142 161.306 232.521 160.158 234.445L152.132 249.423C150.605 252.111 151.753 254.029 153.28 255.183C181.185 273.233 213.298 277.449 243.488 277.449C263.747 277.449 292.795 272.079 302.353 265.165L300.062 269.386C299.304 270.925 300.062 273.613 303.122 273.613H324.144C325.677 273.613 327.204 272.458 327.973 271.31L395.626 142.677C396.384 141.143 397.153 140.374 399.065 140.374H401.356C403.262 140.374 404.031 141.143 404.794 142.677L439.577 208.727C441.104 211.794 439.956 213.718 436.902 213.718H379.564L366.952 237.529H452.189C453.716 237.529 455.249 238.293 456.012 239.832L472.063 271.315C472.832 272.464 474.354 273.618 475.892 273.618H496.914C500.353 273.618 500.353 270.546 499.589 268.627L418.934 115.03ZM412.82 390.346H381.86V360.786H411.677V365.002H386.832V372.686H408.239V377.292H386.832V386.124H412.825L412.82 390.346ZM347.836 374.604C351.659 374.604 353.571 373.065 353.571 369.998C353.571 366.541 351.659 365.002 347.457 365.002H329.868V374.604H347.836ZM348.605 360.786C351.659 360.786 353.95 361.55 355.867 363.089C357.779 365.002 358.542 366.925 358.542 369.998C358.542 373.065 357.784 374.989 355.867 376.907C353.955 378.44 351.28 379.21 347.842 379.21H329.873V390.34H325.287V360.78L348.605 360.786ZM300.057 380.749C300.057 383.822 298.53 386.509 295.47 388.433C292.416 390.346 288.208 391.5 283.242 391.5C278.265 391.5 274.069 390.346 271.009 388.433C267.949 386.509 266.422 383.822 266.422 380.749V360.786H271.388V379.6C271.388 381.903 272.157 383.827 274.448 384.981C276.359 386.13 279.413 386.894 283.242 386.894C287.066 386.894 290.125 386.13 292.031 384.981C293.943 383.827 295.091 381.909 295.091 379.6V360.786H300.057V380.749ZM239.671 375.368C239.671 371.911 238.138 369.223 235.084 366.92C232.403 364.996 229.349 364.232 225.52 364.232C221.697 364.232 218.259 365.386 215.589 367.299C212.908 369.602 211.76 372.295 211.76 375.362C211.76 378.82 212.908 381.513 215.589 383.816C217.88 385.734 221.324 386.883 225.52 386.883C229.728 386.883 233.167 385.734 235.842 383.816C238.133 381.513 239.671 378.82 239.671 375.362V375.368ZM244.637 375.368C244.637 380.364 242.725 384.201 238.523 387.279C235.084 389.967 230.876 391.5 225.52 391.5C220.555 391.5 215.968 389.967 212.524 387.279C208.7 384.206 206.41 380.37 206.41 375.368C206.41 370.762 208.7 366.92 212.524 363.847C216.347 361.16 220.549 359.626 225.52 359.626C230.876 359.626 235.084 361.16 238.523 363.847C242.725 366.92 244.637 370.756 244.637 375.368ZM173.924 374.604C177.752 374.604 179.658 373.065 179.658 369.998C179.658 366.541 177.752 365.002 173.545 365.002H156.346V374.604H173.924ZM185.009 390.346H179.274L171.248 379.216H156.34V390.346H151.374V360.786H174.687C177.747 360.786 180.422 361.55 181.949 363.089C183.866 365.002 184.63 367.305 184.63 369.998C184.63 372.686 183.866 374.604 182.718 376.143C181.191 377.676 179.279 378.446 176.983 378.831L185.009 390.346ZM127.292 374.989C127.292 379.979 125.76 383.822 122.316 386.888C118.877 389.961 114.29 391.5 108.555 391.5C103.21 391.5 99.0027 389.967 95.5585 387.279C91.3507 384.206 89.4446 380.37 89.4446 375.368C89.4446 370.762 91.3507 366.92 95.5585 363.847C98.9971 361.16 103.584 359.626 108.94 359.626C115.433 359.626 120.788 361.929 124.991 366.92L120.404 369.223C117.344 365.766 113.527 364.232 108.55 364.232C104.732 364.232 101.672 364.996 98.9971 366.92C95.9374 369.223 94.4104 371.911 94.4104 375.368C94.4104 378.825 95.9374 381.519 98.228 383.822C100.909 385.74 104.347 386.888 108.55 386.888C115.048 386.888 119.256 384.201 121.162 379.216H107.402V374.61H127.281V374.989H127.292ZM90.5983 320.074H412.82V324.301H90.5983V320.074Z" fill="#2A385A"/>
</svg>
